<svg version="1.0" xmlns="http://www.w3.org/2000/svg" xmlns:xlink="http://www.w3.org/1999/xlink" width="500" height="500" viewBox="0 0 173 173" color-interpolation-filters="sRGB"> <rect x="0" y="0" width="173" height="173" rx="20" ry="20" fill="white" />   <g fill="#333" transform="translate(15,61)"><g><g><g transform="scale(1)"><g transform="translate(0, 0)"><g><g><rect fill="#333" fill-opacity="0" stroke-width="2" x="0" y="0" width="50" height="50"></rect> <svg x="0" y="0" width="50" height="50" filtersec="colorsb6806380187" style="overflow: visible;"><svg xmlns="http://www.w3.org/2000/svg" viewBox="0 0 468 468"><path d="M468 468h-26.82a2.28 2.28 0 0 0-.25-1.08L237 56.6a2.44 2.44 0 0 0-2.17-1.35 2.44 2.44 0 0 0-2.18 1.35L27.07 466.91a2.49 2.49 0 0 0-.26 1.09H0L234 0zM348.67 292.24L277 148.11l-42.23-85-199.9 399 131.83-71.39zM163.38 398.13L34.37 468H436l-85.16-171.39z" fill="#fa991a" opacity=".7"></path><path d="M348.67 292.24l-181.94 98.54L277 148.11zm2.17 4.37L163.38 398.13 131.62 468H436z" fill="#f9d611" opacity=".7"></path></svg></svg> <!----></g></g></g><g transform="translate(50, 0)"><g><g><rect fill="#333" fill-opacity="0" stroke-width="2" x="0" y="0" width="12.5" height="50"></rect> <svg x="0" y="0" width="12.5" height="50" filtersec="colorsb7157439763" style="overflow: visible;"><svg xmlns="http://www.w3.org/2000/svg" viewBox="0 0 117 468"><path d="M0 0v468h117V0zm31.69 438.75a2.44 2.44 0 0 1-4.88 0V29.25a2.44 2.44 0 0 1 4.88 0z" fill="#6228f1" opacity=".7"></path></svg></svg> <!----></g></g></g><g transform="translate(62.5, 0)"><g><g><rect fill="#333" fill-opacity="0" stroke-width="2" x="0" y="0" width="37.5" height="50"></rect> <svg x="0" y="0" width="37.5" height="50" filtersec="colorsb7255074776" style="overflow: visible;"><svg xmlns="http://www.w3.org/2000/svg" viewBox="0 0 351 468"><path d="M117 0H0v468h117s234 0 234-234S117 0 117 0zm124.15 372c-27.48 25.26-63.82 39.17-102.32 39.17h-125a2.44 2.44 0 1 1 0-4.87h125c37.28 0 72.44-13.46 99-37.89 34.11-31.36 51.4-76.83 51.4-135.17 0-36.22-6.8-67.08-20.2-91.71a123.37 123.37 0 0 0-44.26-46.87c-31.95-19.6-64.4-19.86-64.73-19.86a2.43 2.43 0 0 1-2.43-2.44 2.43 2.43 0 0 1 2.43-2.43c1.37 0 34 .23 67.09 20.46A128.13 128.13 0 0 1 273.26 139c13.85 25.39 20.86 57.07 20.86 94.18 0 59.82-17.82 106.45-52.97 138.82z" fill="#fd2965" opacity=".7"></path><path d="M224.79 94.61c-31.95-19.6-64.4-19.86-64.73-19.86a2.43 2.43 0 0 1-2.43-2.44H28.44v160.88h260.81c0-36.22-6.8-67.08-20.2-91.71a123.37 123.37 0 0 0-44.26-46.87z" fill="#f9d611" opacity=".7"></path></svg></svg> <!----></g></g></g><g transform="translate(100, 0)"><g><g><rect fill="#333" fill-opacity="0" stroke-width="2" x="0" y="0" width="43.58802122072136" height="50"></rect> <svg x="0" y="0" width="43.58802122072136" height="50" filtersec="colorsb9012242192" style="overflow: visible;"><svg xmlns="http://www.w3.org/2000/svg" viewBox="0 0 408.69 468.81"><path d="M408.69 468L0 468.81V.81L351.81 0l-1.62 117h-175.5v84.81l-143.94.49-.11-26.8-.57-143h290.06a2.44 2.44 0 0 0 0-4.88H27.63a2.44 2.44 0 0 0-2.44 2.45l.58 145.43.46 117 .58 145.5a2.45 2.45 0 0 0 2.44 2.43h351a2.44 2.44 0 1 0 0-4.88H31.68l-.57-143-.34-85.32 143.92-.5V351l233.19-2.44z" fill="#6228f1" opacity=".7"></path><path d="M291.69 175.5v117H31.11l-.34-85.32 143.92-.5 88.57-.3a2.44 2.44 0 0 0 0-4.88l-88.55.31-143.94.49-.11-26.8h261.03zM0 175.5v117h26.23l-.46-117z" fill="#2f97dd" opacity=".7"></path></svg></svg> <!----></g></g></g></g></g></g> <!----></g><defs v-gra="od"></defs></svg>
