<?xml version="1.0" encoding="UTF-8"?>
<svg version="1.1" viewBox="0 0 100 111" xmlns="http://www.w3.org/2000/svg">
 <path d="m74.849 59.509 3.3068 9.6971 5.7682-9.6971zm-0.60149-20.967v17.932h9.7882zm-3.095 10.125v-14.485h-4.9379zm-10.769-31.582 4.7949 14.06h5.0317l-8.1661-14.959-1.236 0.66762-0.42452 0.2288zm-6.7406 78.095h7.3394l-2.7688-5.0085-0.91787 0.97686a71.108 69.794 0 0 1-3.6527 4.0308zm-3.5937-4.567 0.12512-29.212a48.51 47.615 0 0 0-3.263 2.0645c0.12512 3.6071 0.71499 15.891 3.137 27.147zm-8.3743-23.137c0.11172 2.3103 0.81152 10.604 5.1649 19.634-1.5703-8.8427-2.1405-17.601-2.3398-21.906a62.074 60.926 0 0 0-2.8251 2.2719zm-2.6794 27.704h7.6388l-0.58361-0.67209a69.587 68.302 0 0 1-4.088-4.6894l-2.9672 5.3598zm-2.4426-22.688c0.27527 1.6293 2.4238 7.7728 7.763 15.086-3.516-7.4851-4.6314-14.336-4.9808-17.987a46.725 45.861 0 0 0-2.7831 2.9011zm3.8601-15.062v6.9479a46.951 46.083 0 0 1 3.8842-2.9592c3.4248-2.4891 4.8181-3.0003 5.6976-3.0557h-0.0054v-0.93306zm-24.358 2.0797 6.1668 10.364 4.2444-10.364zm11.154-16.456-10.677 13.419h10.677zm3.0968-3.8887v10.974l7.5092-18.34-1.0037-0.81152-6.5073 8.1777zm49.892 32.635h6.2177l1.548 1.5194v23.378l-1.548 1.5211h-72.853l-1.5462-1.5176v-23.38l1.5462-1.5194h6.2204l-7.7603-13.04 0.11529-1.7017 23.211-29.167 2.1083-0.2288 0.03843-0.05184 10.428 7.6772-1.8563 2.431-5.6386-4.1532-16.23 39.632 12.145 20.407 3.5955-6.4957c-6.0908-8.6836-6.5341-14.664-6.5565-15.001l0.36286-1.0689a62.861 61.699 0 0 1 3.5705-3.8279v-11.299l1.5497-1.5194h22.247l1.548 1.5194v10.947a62.175 61.026 0 0 1 3.9324 4.1827l0.36107 1.0671c-0.01877 0.3423-0.47368 6.4501-6.7567 15.288l3.4382 6.2088 12.444-20.91-18.449-54.12-5.0603 2.7411-1.4934-2.6598 10.841-5.8728 2.1128 0.614 23.954 43.878" fill="#1e88e5" fill-rule="evenodd" stroke-width=".89374"/>
</svg>
